<svg version="1.1" baseProfile="full" xmlns="http://www.w3.org/2000/svg" width="449" height="151">
    <g fill="#ffffff" transform="matrix(1,0,0,1,0,0)"></g>
    <g fill="#000000" transform="matrix(6.560888804638208,0,0,6.560888804638208,-7.873066878413407,-52.32844990101412)">
        <path d="M2.98 24.12 q-0.74 0 -1.78 -0.18 l0 -14.28 q0.54 -0.08 0.98 -0.12 t0.78 -0.04 q0.36 0 0.81 0.04 t0.97 0.12 l0 14.28 q-1.06 0.18 -1.76 0.18 z M11.260000000000002 13.46 q0.88 0 1.76 0.15 t1.59 0.63 t1.16 1.38 t0.45 2.38 l0 5.98 q-0.52 0.1 -0.94 0.13 t-0.74 0.03 q-0.34 0 -0.76 -0.03 t-0.94 -0.13 l0 -5.62 q0 -1.06 -0.4 -1.52 t-1.22 -0.46 q-0.22 0 -0.47 0.04 t-0.31 0.08 l0 7.48 q-0.52 0.1 -0.94 0.13 t-0.74 0.03 q-0.34 0 -0.76 -0.03 t-0.94 -0.13 l0 -9.82 q0.7 -0.24 1.7 -0.47 t2.5 -0.23 z M21.740000000000002 23.98 q-0.52 0.08 -0.94 0.12 t-0.76 0.04 t-0.76 -0.04 t-0.92 -0.12 l0 -10.32 q0.44 -0.1 0.87 -0.14 t0.83 -0.04 q0.38 0 0.82 0.04 t0.86 0.14 l0 10.32 z M26.28 16.48 l-2.96 0 q-0.1 -0.4 -0.13 -0.75 t-0.03 -0.67 t0.03 -0.66 t0.13 -0.74 l9.3 0 q0.1 0.4 0.13 0.74 t0.03 0.66 t-0.03 0.67 t-0.13 0.75 l-2.96 0 l0 7.5 q-0.52 0.08 -0.94 0.12 t-0.76 0.04 t-0.76 -0.04 t-0.92 -0.12 l0 -7.5 z M37.580000000000005 23.98 q-0.52 0.08 -0.94 0.12 t-0.76 0.04 t-0.76 -0.04 t-0.92 -0.12 l0 -10.32 q0.44 -0.1 0.87 -0.14 t0.83 -0.04 q0.38 0 0.82 0.04 t0.86 0.14 l0 10.32 z M39.300000000000004 20.62 q0 -0.98 0.42 -1.62 t1.08 -1.02 t1.46 -0.53 t1.56 -0.15 l1.22 0 q-0.02 -0.36 -0.2 -0.6 t-0.46 -0.37 t-0.62 -0.18 t-0.7 -0.05 q-0.48 0 -1.12 0.11 t-1.32 0.35 q-0.18 -0.34 -0.31 -0.62 t-0.2 -0.57 t-0.1 -0.6 t-0.03 -0.71 q0.96 -0.32 1.91 -0.48 t1.71 -0.16 q1.04 0 1.88 0.25 t1.43 0.77 t0.91 1.33 t0.32 1.93 l0 5.86 q-0.76 0.22 -1.84 0.44 t-2.28 0.22 q-1.04 0 -1.91 -0.19 t-1.49 -0.61 t-0.97 -1.11 t-0.35 -1.69 z M44.02 21.740000000000002 q0.18 0 0.52 -0.04 t0.5 -0.08 l0 -2.2 l-1.14 0 q-0.7 0 -1.18 0.3 t-0.48 0.84 q0 0.4 0.18 0.63 t0.45 0.35 t0.58 0.16 t0.57 0.04 z M52.580000000000005 16.48 l-2.96 0 q-0.1 -0.4 -0.13 -0.75 t-0.03 -0.67 t0.03 -0.66 t0.13 -0.74 l9.3 0 q0.1 0.4 0.13 0.74 t0.03 0.66 t-0.03 0.67 t-0.13 0.75 l-2.96 0 l0 7.5 q-0.52 0.08 -0.94 0.12 t-0.76 0.04 t-0.76 -0.04 t-0.92 -0.12 l0 -7.5 z M63.400000000000006 19.9 q0.22 0.82 0.77 1.16 t1.45 0.34 q0.58 0 1.3 -0.14 t1.42 -0.42 q0.28 0.52 0.49 1.24 t0.23 1.5 q-1.78 0.66 -3.64 0.66 q-1.44 0 -2.47 -0.4 t-1.68 -1.11 t-0.96 -1.69 t-0.31 -2.14 q0 -1.14 0.32 -2.14 t0.96 -1.74 t1.6 -1.17 t2.24 -0.43 q1.06 0 1.89 0.36 t1.41 0.99 t0.89 1.52 t0.31 1.93 q0 0.54 -0.05 0.97 t-0.09 0.71 l-6.08 0 z M65 15.96 q-0.64 0 -1.1 0.4 t-0.54 1.24 l3.2 0 q-0.04 -0.7 -0.43 -1.17 t-1.13 -0.47 z"></path>
    </g>
    <g fill="#000000" transform="matrix(1.6854346140063268,0,0,1.6854346140063268,133.00337730343392,105.48274206862256)">
        <path d="M6.92 23.96 c-0.12 -0.04 -0.2 -0.12 -0.24 -0.24 c-0.02 0 -0.02 -0.02 -0.02 -0.04 l-0.02 -0.02 l-5.42 -12.9 c-0.1 -0.24 0.02 -0.54 0.26 -0.64 c0.24 -0.12 0.54 0 0.64 0.24 l5 11.92 l5.02 -11.92 c0.08 -0.24 0.38 -0.36 0.62 -0.24 c0.24 0.1 0.36 0.4 0.26 0.64 l-5.42 12.8 c-0.02 0.18 -0.12 0.34 -0.28 0.4 l-0.02 0 c-0.06 0.02 -0.12 0.04 -0.18 0.04 s-0.14 0 -0.18 -0.02 c-0.02 0 -0.02 -0.02 -0.02 -0.02 z M17.08 23.52 l0 -13.04 c0 -0.26 0.22 -0.48 0.48 -0.48 l0.04 0 l7.16 0 c0.28 0 0.48 0.22 0.48 0.48 c0 0.28 -0.2 0.5 -0.48 0.5 l-6.7 0 l0 5.54 l5.86 0 c0.26 0 0.48 0.22 0.48 0.5 c0 0.26 -0.22 0.48 -0.48 0.48 l-5.86 0 l0 5.52 l6.7 0 c0.28 0 0.48 0.22 0.48 0.5 c0 0.26 -0.2 0.48 -0.48 0.48 l-7.14 0 l-0.06 0 l-0.04 0 c-0.24 -0.02 -0.44 -0.22 -0.44 -0.48 z M38.36 23.74 l-8.4 -11.68 l0 11.46 c0 0.26 -0.22 0.48 -0.48 0.48 s-0.48 -0.22 -0.48 -0.48 l0 -12.84 c-0.06 -0.2 0 -0.4 0.18 -0.54 c0.22 -0.14 0.54 -0.1 0.68 0.12 l8.48 11.76 l0 -11.4 c0 -0.26 0.22 -0.48 0.48 -0.48 c0.28 0 0.5 0.22 0.5 0.48 l0 12.9 c0 0.26 -0.22 0.48 -0.5 0.48 c-0.16 0 -0.28 -0.06 -0.38 -0.18 c-0.02 -0.02 -0.06 -0.04 -0.08 -0.08 z M47.980000000000004 23.52 l0 -12.54 l-4.22 0 c-0.26 0 -0.48 -0.22 -0.48 -0.5 c0 -0.26 0.22 -0.48 0.48 -0.48 l9.4 0 c0.26 0 0.48 0.22 0.48 0.48 c0 0.28 -0.22 0.5 -0.48 0.5 l-4.22 0 l0 12.54 c0 0.26 -0.22 0.48 -0.48 0.48 s-0.48 -0.22 -0.48 -0.48 z M57.34 18.34 l0 -7.86 c0 -0.26 0.22 -0.48 0.48 -0.48 l0 0 c0.28 0 0.5 0.22 0.5 0.48 l0 0 l0 7.86 c0 2.58 2.1 4.66 4.66 4.68 l0 0 c2.6 -0.02 4.7 -2.1 4.7 -4.68 l0 0 l0 -7.86 l0 0 c0 -0.26 0.22 -0.48 0.48 -0.48 l0 0 c0.28 0 0.5 0.22 0.5 0.48 l0 0 l0 7.86 c0 3.12 -2.54 5.66 -5.68 5.66 l0 0 c-3.1 0 -5.64 -2.54 -5.64 -5.66 l0 0 z M80.94000000000001 23.14 c-0.24 -0.46 -0.38 -1.12 -0.38 -2.3 c0 -1.02 -0.52 -1.66 -1.14 -2.12 c-0.62 -0.44 -1.36 -0.66 -1.62 -0.7 c-0.06 -0.02 -0.08 -0.04 -0.1 -0.04 l-3.4 0 l0 5.54 c0 0.26 -0.22 0.48 -0.5 0.48 c-0.26 0 -0.48 -0.22 -0.48 -0.48 l0 -13.04 c0 -0.24 0.2 -0.46 0.44 -0.48 l0.04 0 l0.06 0 l3.9 0 c2.2 0 3.98 1.78 3.98 4 c0 1.6 -0.94 2.98 -2.3 3.62 c0.06 0.04 0.12 0.06 0.2 0.1 c0.92 0.52 1.88 1.54 1.88 3.12 c0 0.82 0.08 1.32 0.18 1.62 c0.08 0.24 0.18 0.32 0.2 0.34 c0.22 -0.02 0.46 0.1 0.54 0.32 c0.06 0.26 -0.06 0.54 -0.32 0.64 c-0.02 0 -0.12 0.02 -0.24 0.02 l-0.04 0 c-0.26 0 -0.68 -0.2 -0.9 -0.64 z M80.78000000000002 14 c0 -1.68 -1.36 -3.02 -3.02 -3.02 l-3.46 0 l0 6.04 l3.36 0 l0.18 0 c1.62 -0.04 2.94 -1.38 2.94 -3.02 z M86.10000000000001 23.52 l0 -13.04 c0 -0.26 0.22 -0.48 0.48 -0.48 l0.04 0 l7.16 0 c0.28 0 0.48 0.22 0.48 0.48 c0 0.28 -0.2 0.5 -0.48 0.5 l-6.7 0 l0 5.54 l5.86 0 c0.26 0 0.48 0.22 0.48 0.5 c0 0.26 -0.22 0.48 -0.48 0.48 l-5.86 0 l0 5.52 l6.7 0 c0.28 0 0.48 0.22 0.48 0.5 c0 0.26 -0.2 0.48 -0.48 0.48 l-7.14 0 l-0.06 0 l-0.04 0 c-0.24 -0.02 -0.44 -0.22 -0.44 -0.48 z M97.38000000000001 22 c-0.18 -0.16 -0.2 -0.44 -0.06 -0.62 l0 0 c0.16 -0.2 0.44 -0.22 0.62 -0.06 l0 0 c1.04 0.84 2.78 1.82 4.6 1.8 l0 0 c1.22 0 2.32 -0.36 3.08 -0.92 l0 0 c0.78 -0.56 1.2 -1.3 1.2 -2.08 l0 0 c0 -0.8 -0.38 -1.4 -1.14 -1.92 l0 0 c-0.76 -0.5 -1.88 -0.88 -3.24 -1.14 l0 0 l-0.04 0 c-1.3 -0.24 -2.44 -0.6 -3.3 -1.18 l0 0 c-0.86 -0.56 -1.44 -1.4 -1.44 -2.44 l0 0 c0 -1.06 0.58 -1.98 1.46 -2.62 l0 0 c0.88 -0.64 2.06 -1.02 3.38 -1.02 l0 0 c1.84 0 3.22 0.9 4.32 1.62 l0 0 c0.2 0.14 0.26 0.4 0.12 0.62 l0 0 c-0.12 0.2 -0.4 0.26 -0.6 0.12 l0 0 c-1.1 -0.72 -2.3 -1.48 -3.84 -1.48 l0 0 c-1.14 0 -2.16 0.34 -2.86 0.84 l0 0 c-0.7 0.52 -1.1 1.2 -1.1 1.92 l0 0 c0.02 0.7 0.34 1.22 1.04 1.7 l0 0 c0.7 0.48 1.74 0.82 3 1.06 l0 0 l0.04 0 c1.4 0.26 2.64 0.66 3.56 1.28 l0 0 c0.92 0.6 1.54 1.52 1.54 2.64 l0 0 c0 1.12 -0.64 2.12 -1.58 2.8 l0 0 c-0.94 0.68 -2.2 1.1 -3.6 1.1 l0 0 c-2.14 -0.02 -4 -1.1 -5.16 -2.02 l0 0 z"></path>
    </g>
</svg>